{"accessors":[{"name":"Umbreon-Mesh_positions","componentType":5126,"count":4236,"min":[-0.980368971824646,-1.3222090005874634,-2.6771109104156494],"max":[0.980368971824646,2.1328859329223633,1.5208410024642944],"type":"VEC3","bufferView":0,"byteOffset":0},{"name":"Umbreon-Mesh_normals","componentType":5126,"count":4236,"min":[-1,-1,-0.9998999834060669],"max":[1,1,0.9991999864578247],"type":"VEC3","bufferView":0,"byteOffset":50832},{"name":"Umbreon-Mesh_texcoords","componentType":5126,"count":4236,"min":[0.02211800031363964,0.007668000180274248],"max":[0.9888449907302856,0.984728991985321],"type":"VEC2","bufferView":1,"byteOffset":0},{"name":"Umbreon-Mesh_0_indices","componentType":5123,"count":21585,"min":[0],"max":[4073],"type":"SCALAR","bufferView":2,"byteOffset":0},{"name":"Umbreon-Mesh_1_indices","componentType":5123,"count":840,"min":[4074],"max":[4235],"type":"SCALAR","bufferView":2,"byteOffset":43172}],"asset":{"generator":"obj2gltf","version":"2.0"},"buffers":[{"name":"input","byteLength":180404,"uri":"data:application/octet-stream;base64,"}],"bufferViews":[{"name":"bufferView_0","buffer":0,"byteLength":101664,"byteOffset":0,"byteStride":12,"target":34962},{"name":"bufferView_1","buffer":0,"byteLength":33888,"byteOffset":101664,"byteStride":8,"target":34962},{"name":"bufferView_2","buffer":0,"byteLength":44852,"byteOffset":135552,"target":34963}],"materials":[{"name":"Umbreon","pbrMetallicRoughness":{"baseColorFactor":[0.5,0.5,0.5,1],"metallicFactor":0,"roughnessFactor":1},"emissiveFactor":[0,0,0],"alphaMode":"OPAQUE","doubleSided":false},{"name":"UmbreonEye","pbrMetallicRoughness":{"baseColorFactor":[0.5,0.5,0.5,1],"metallicFactor":0,"roughnessFactor":1},"emissiveFactor":[0,0,0],"alphaMode":"OPAQUE","doubleSided":false}],"meshes":[{"name":"Umbreon-Mesh","primitives":[{"attributes":{"POSITION":0,"NORMAL":1,"TEXCOORD_0":2},"indices":3,"material":0,"mode":4},{"attributes":{"POSITION":0,"NORMAL":1,"TEXCOORD_0":2},"indices":4,"material":1,"mode":4}]}],"nodes":[{"name":"Umbreon","mesh":0}],"scene":0,"scenes":[{"nodes":[0]}]}
